<svg width="50" height="50" viewBox="0 0 500 462" fill="none" xmlns="http://www.w3.org/2000/svg">
<path d="M135.163 0V461.327H352.143V0H135.163Z" fill="#FBBF24"/>
<path d="M147.857 0C66.3938 0 0 66.4108 0 147.895C0 229.378 66.3938 295.789 147.857 295.789C229.32 295.789 295.713 229.378 295.713 147.895C295.713 66.4108 229.32 0 147.857 0ZM147.857 28.1704C214.082 28.1704 267.55 81.6528 267.55 147.895C267.55 214.136 214.082 267.619 147.857 267.619C81.6319 267.619 28.1632 214.136 28.1632 147.895C28.1632 81.6528 81.6319 28.1704 147.857 28.1704Z" fill="#FBBF24"/>
<path d="M352.143 165.538C270.68 165.538 204.287 231.949 204.287 313.433C204.287 394.917 270.68 461.327 352.143 461.327C433.606 461.327 500 394.917 500 313.433C500 231.949 433.606 165.538 352.143 165.538ZM352.143 193.709C418.368 193.709 471.837 247.191 471.837 313.433C471.837 379.675 418.368 433.157 352.143 433.157C285.919 433.157 232.45 379.675 232.45 313.433C232.45 247.191 285.919 193.709 352.143 193.709Z" fill="#FBBF24"/>
</svg>
