<svg width="451" height="125" viewBox="0 0 451 125" fill="none" xmlns="http://www.w3.org/2000/svg">
<path d="M30.5711 101.496H70.6174V125H0V0H30.5711V101.496Z" fill="#87BCE7"/>
<path d="M115.77 0V125H85.199V0H115.77Z" fill="#87BCE7"/>
<path d="M213.905 60.8974C221.176 62.4406 227.016 66.0613 231.426 71.7593C235.835 77.3386 238.04 83.7488 238.04 90.99C238.04 101.436 234.346 109.746 226.956 115.919C219.686 121.973 209.495 125 196.385 125H137.925V0H194.418C207.171 0 217.123 2.90835 224.274 8.72507C231.545 14.5418 235.18 22.4359 235.18 32.4074C235.18 39.7673 233.213 45.8808 229.28 50.7479C225.466 55.6149 220.341 58.9981 213.905 60.8974ZM168.496 50.5698H188.519C193.525 50.5698 197.338 49.5014 199.961 47.3647C202.702 45.1092 204.072 41.8447 204.072 37.5712C204.072 33.2977 202.702 30.0332 199.961 27.7778C197.338 25.5223 193.525 24.3946 188.519 24.3946H168.496V50.5698ZM191.022 100.427C196.147 100.427 200.08 99.2996 202.821 97.0442C205.681 94.67 207.112 91.2868 207.112 86.8946C207.112 82.5024 205.622 79.0598 202.642 76.5669C199.782 74.0741 195.789 72.8276 190.664 72.8276H168.496V100.427H191.022Z" fill="#87BCE7"/>
<path d="M286.343 24.3946V49.6795H327.283V73.1838H286.343V100.605H332.646V125H255.771V0H332.646V24.3946H286.343Z" fill="#87BCE7"/>
<path d="M416.496 125L390.394 77.8134H383.064V125H352.493V0H403.803C413.695 0 422.098 1.72127 429.01 5.16382C436.042 8.60636 441.286 13.3547 444.743 19.4088C448.199 25.3443 449.927 31.9919 449.927 39.3518C449.927 47.6614 447.544 55.0807 442.776 61.6097C438.128 68.1387 431.215 72.7683 422.038 75.4986L451 125H416.496ZM383.064 56.2678H402.015C407.616 56.2678 411.788 54.9027 414.529 52.1724C417.39 49.4421 418.82 45.584 418.82 40.5983C418.82 35.85 417.39 32.1106 414.529 29.3803C411.788 26.6501 407.616 25.2849 402.015 25.2849H383.064V56.2678Z" fill="#87BCE7"/>
</svg>
